SplineFontDB: 3.0
FontName: Snellen
FullName: Snellen
FamilyName: Snellen
Weight: Medium
Copyright: Copyright (c) 2018 by David Dunn with FontForge 2.0 (http://fontforge.sf.net)
Version: Release 1.0
ItalicAngle: 0
UnderlinePosition: -179
UnderlineWidth: 71
Ascent: 778
Descent: 246
InvalidEm: 0
sfntRevision: 0x00010000
LayerCount: 2
Layer: 0 1 "Back" 1
Layer: 1 1 "Fore" 0
XUID: [1021 135 -303383518 11937]
StyleMap: 0x0040
FSType: 4
OS2Version: 4
OS2_WeightWidthSlopeOnly: 0
OS2_UseTypoMetrics: 1
CreationTime: 1241032827
ModificationTime: 1547760610
PfmFamily: 17
TTFWeight: 500
TTFWidth: 5
LineGap: 0
VLineGap: 0
Panose: 2 0 6 9 0 2 5 0 0 4
OS2TypoAscent: 1024
OS2TypoAOffset: 0
OS2TypoDescent: 0
OS2TypoDOffset: 0
OS2TypoLinegap: 0
OS2WinAscent: 0
OS2WinAOffset: 1
OS2WinDescent: 0
OS2WinDOffset: 1
HheadAscent: 1024
HheadAOffset: 0
HheadDescent: 0
HheadDOffset: 0
OS2SubXSize: 665
OS2SubYSize: 716
OS2SubXOff: 0
OS2SubYOff: 143
OS2SupXSize: 665
OS2SupYSize: 716
OS2SupXOff: 0
OS2SupYOff: 491
OS2StrikeYSize: 51
OS2StrikeYPos: 265
OS2CapHeight: 1024
OS2XHeight: 1024
OS2FamilyClass: 1030
OS2Vendor: 'PfEd'
OS2CodePages: 00000001.00000000
OS2UnicodeRanges: 00000001.00000000.00000000.00000000
MarkAttachClasses: 1
DEI: 91125
ShortTable: cvt  2
  34
  648
EndShort
ShortTable: maxp 16
  1
  0
  55
  107
  5
  0
  0
  2
  0
  1
  1
  0
  64
  46
  0
  0
EndShort

StartChar: .notdef
Encoding: 65536 -1 0
Width: 1227
Flags: W
LayerCount: 2
Fore
SplineSet
34 0 m 1,0,-1
 34 682 l 1,1,-1
 306 682 l 1,2,-1
 306 0 l 1,3,-1
 34 0 l 1,0,-1
68 34 m 1,4,-1
 272 34 l 1,5,-1
 272 648 l 1,6,-1
 68 648 l 1,7,-1
 68 34 l 1,4,-1
EndSplineSet
Validated: 1
EndChar

StartChar: A
Encoding: 65 65 3
Width: 1229
Flags: W
LayerCount: 2
Fore
SplineSet
717 728 m 5,0,-1
 590 410 l 5,1,-1
 844 410 l 5,2,-1
 717 728 l 5,0,-1
615 1024 m 5,3,-1
 819 1024 l 5,4,-1
 1147 205 l 5,5,-1
 1229 205 l 5,6,-1
 1229 0 l 5,7,-1
 1008 0 l 5,8,-1
 925 205 l 5,9,-1
 509 205 l 5,10,-1
 426 0 l 5,11,-1
 205 0 l 5,12,-1
 205 205 l 5,13,-1
 287 205 l 5,14,-1
 615 1024 l 5,3,-1
EndSplineSet
EndChar

StartChar: B
Encoding: 66 66 4
Width: 1127
Flags: W
LayerCount: 2
Fore
SplineSet
819 819 m 6,0,-1
 780 819 l 5,1,-1
 615 819 l 5,2,-1
 615 614 l 5,3,-1
 770 614 l 5,4,-1
 819 614 l 6,5,6
 840 614 840 614 858 622 c 4,7,8
 880 632 880 632 892 644 c 4,9,10
 907 661 907 661 914 677 c 4,11,12
 922 698 922 698 922 716 c 4,13,14
 922 736 922 736 914 755 c 4,15,16
 905 775 905 775 892 788 c 4,17,18
 875 805 875 805 858 810 c 4,19,20
 834 819 834 819 819 819 c 6,0,-1
770 0 m 5,21,-1
 205 0 l 5,22,-1
 205 205 l 5,23,-1
 410 205 l 5,24,-1
 410 819 l 5,25,-1
 205 819 l 5,26,-1
 205 1024 l 5,27,-1
 615 1024 l 5,28,-1
 774 1024 l 5,29,-1
 819 1024 l 5,30,31
 913 1011 913 1011 937 1000 c 4,32,33
 994 978 994 978 1036 934 c 4,34,35
 1083 885 1083 885 1103 835 c 4,36,37
 1127 778 1127 778 1127 717 c 4,38,39
 1127 660 1127 660 1103 599 c 4,40,41
 1086 553 1086 553 1049 513 c 5,42,-1
 1049 512 l 5,43,44
 1087 468 1087 468 1103 425 c 4,45,46
 1127 360 1127 360 1127 307 c 4,47,48
 1127 248 1127 248 1103 189 c 4,49,50
 1081 135 1081 135 1036 90 c 4,51,52
 994 46 994 46 937 24 c 4,53,54
 907 12 907 12 819 0 c 5,55,-1
 770 0 l 5,21,-1
819 410 m 6,56,-1
 780 410 l 5,57,-1
 615 410 l 5,58,-1
 615 205 l 5,59,-1
 770 205 l 5,60,-1
 819 205 l 6,61,62
 840 205 840 205 858 213 c 4,63,64
 880 223 880 223 892 235 c 4,65,66
 907 252 907 252 914 268 c 4,67,68
 922 289 922 289 922 307 c 4,69,70
 922 327 922 327 914 346 c 4,71,72
 905 366 905 366 892 379 c 4,73,74
 875 396 875 396 858 401 c 4,75,76
 834 410 834 410 819 410 c 6,56,-1
EndSplineSet
EndChar

StartChar: C
Encoding: 67 67 5
Width: 1229
Flags: W
LayerCount: 2
Fore
SplineSet
1000 393 m 2,0,1
 1006 410 l 1,2,-1
 1229 410 l 1,3,-1
 1190 315 l 2,4,5
 1150 220 1150 220 1077 152 c 1,6,7
 1009 79 1009 79 914 39 c 0,8,9
 819 0 819 0 717 0 c 128,-1,10
 615 0 615 0 520 39 c 0,11,12
 427 79 427 79 356 151 c 0,13,14
 284 222 284 222 244 315 c 0,15,16
 205 410 205 410 205 512 c 128,-1,17
 205 614 205 614 244 709 c 0,18,19
 284 802 284 802 356 873 c 0,20,21
 427 945 427 945 520 985 c 0,22,23
 615 1024 615 1024 717 1024 c 128,-1,24
 819 1024 819 1024 914 985 c 0,25,26
 1006 946 1006 946 1024 922 c 1,27,-1
 1024 1024 l 1,28,-1
 1229 1024 l 1,29,-1
 1229 614 l 1,30,-1
 1006 614 l 1,31,-1
 1000 631 l 2,32,33
 978 685 978 685 934 729 c 128,-1,34
 890 773 890 773 836 795 c 0,35,36
 779 819 779 819 717 819 c 128,-1,37
 655 819 655 819 598 795 c 0,38,39
 544 773 544 773 500 729 c 128,-1,40
 456 685 456 685 434 631 c 0,41,42
 410 574 410 574 410 512 c 128,-1,43
 410 450 410 450 434 393 c 0,44,45
 456 339 456 339 500 295 c 128,-1,46
 544 251 544 251 598 229 c 0,47,48
 655 205 655 205 717 205 c 128,-1,49
 779 205 779 205 836 229 c 0,50,51
 890 251 890 251 934 295 c 128,-1,52
 978 339 978 339 1000 393 c 2,0,1
EndSplineSet
EndChar

StartChar: D
Encoding: 68 68 6
Width: 1229
Flags: W
LayerCount: 2
Fore
SplineSet
717 205 m 2,0,1
 779 205 779 205 836 229 c 0,2,3
 890 251 890 251 934 295 c 128,-1,4
 978 339 978 339 1000 393 c 0,5,6
 1024 450 1024 450 1024 512 c 128,-1,7
 1024 574 1024 574 1000 631 c 0,8,9
 978 685 978 685 934 729 c 128,-1,10
 890 773 890 773 836 795 c 0,11,12
 779 819 779 819 717 819 c 2,13,-1
 615 819 l 1,14,-1
 615 205 l 1,15,-1
 668 205 l 1,16,-1
 717 205 l 2,0,1
717 0 m 2,17,-1
 588 0 l 1,18,-1
 205 0 l 1,19,-1
 205 205 l 1,20,-1
 410 205 l 1,21,-1
 410 819 l 1,22,-1
 205 819 l 1,23,-1
 205 1024 l 1,24,-1
 717 1024 l 2,25,26
 819 1024 819 1024 914 985 c 0,27,28
 1007 945 1007 945 1078 873 c 0,29,30
 1150 802 1150 802 1190 709 c 0,31,32
 1229 614 1229 614 1229 512 c 128,-1,33
 1229 410 1229 410 1190 315 c 0,34,35
 1150 222 1150 222 1078 151 c 0,36,37
 1007 79 1007 79 914 39 c 0,38,39
 819 0 819 0 717 0 c 2,17,-1
EndSplineSet
EndChar

StartChar: E
Encoding: 69 69 7
Width: 1229
Flags: W
LayerCount: 2
Fore
SplineSet
205 1024 m 1,0,-1
 1229 1024 l 1,1,-1
 1229 614 l 1,2,-1
 1024 614 l 1,3,-1
 1024 819 l 1,4,-1
 615 819 l 1,5,-1
 615 614 l 1,6,-1
 819 614 l 1,7,-1
 819 410 l 1,8,-1
 615 410 l 1,9,-1
 615 205 l 1,10,-1
 1024 205 l 1,11,-1
 1024 410 l 1,12,-1
 1229 410 l 1,13,-1
 1229 0 l 1,14,-1
 205 0 l 1,15,-1
 205 205 l 1,16,-1
 410 205 l 1,17,-1
 410 819 l 1,18,-1
 205 819 l 1,19,-1
 205 1024 l 1,0,-1
EndSplineSet
EndChar

StartChar: F
Encoding: 70 70 8
Width: 1229
Flags: W
LayerCount: 2
Fore
SplineSet
615 205 m 1,0,-1
 819 205 l 1,1,-1
 819 0 l 1,2,-1
 205 0 l 1,3,-1
 205 205 l 1,4,-1
 410 205 l 1,5,-1
 410 819 l 1,6,-1
 205 819 l 1,7,-1
 205 1024 l 1,8,-1
 1229 1024 l 1,9,-1
 1229 614 l 1,10,-1
 1024 614 l 1,11,-1
 1024 819 l 1,12,-1
 615 819 l 1,13,-1
 615 614 l 1,14,-1
 819 614 l 1,15,-1
 819 410 l 1,16,-1
 615 410 l 1,17,-1
 615 205 l 1,0,-1
EndSplineSet
EndChar

StartChar: G
Encoding: 71 71 9
Width: 1229
Flags: W
LayerCount: 2
Fore
SplineSet
937 725 m 1,0,-1
 934 729 l 2,1,2
 904 767 904 767 836 795 c 0,3,4
 776 819 776 819 717 819 c 128,-1,5
 658 819 658 819 598 795 c 0,6,7
 542 771 542 771 500 729 c 128,-1,8
 458 687 458 687 434 631 c 0,9,10
 410 571 410 571 410 512 c 128,-1,11
 410 453 410 453 434 393 c 0,12,13
 458 337 458 337 500 295 c 128,-1,14
 542 253 542 253 598 229 c 0,15,16
 658 205 658 205 717 205 c 128,-1,17
 776 205 776 205 836 229 c 0,18,19
 892 253 892 253 934 295 c 2,20,-1
 968 333 l 1,21,-1
 819 332 l 1,22,-1
 819 513 l 1,23,-1
 1229 512 l 1,24,-1
 1229 0 l 1,25,-1
 1024 0 l 1,26,-1
 1024 102 l 1,27,28
 1006 78 1006 78 914 39 c 0,29,30
 819 0 819 0 717 0 c 128,-1,31
 615 0 615 0 520 39 c 0,32,33
 428 77 428 77 356 151 c 0,34,35
 282 223 282 223 244 315 c 0,36,37
 205 410 205 410 205 512 c 128,-1,38
 205 614 205 614 244 709 c 0,39,40
 282 801 282 801 356 873 c 0,41,42
 428 947 428 947 520 985 c 0,43,44
 615 1024 615 1024 717 1024 c 0,45,46
 821 1024 821 1024 914 985 c 0,47,48
 995 951 995 951 1077 872 c 0,49,50
 1128 824 1128 824 1180 730 c 2,51,-1
 1183 725 l 1,52,-1
 937 725 l 1,0,-1
EndSplineSet
EndChar

StartChar: H
Encoding: 72 72 10
Width: 1229
Flags: W
LayerCount: 2
Fore
SplineSet
205 1024 m 1,0,-1
 410 1024 l 1,1,-1
 410 614 l 1,2,-1
 1024 614 l 1,3,-1
 1024 1024 l 1,4,-1
 1229 1024 l 1,5,-1
 1229 0 l 1,6,-1
 1024 0 l 1,7,-1
 1024 410 l 1,8,-1
 410 410 l 1,9,-1
 410 0 l 1,10,-1
 205 0 l 1,11,-1
 205 1024 l 1,0,-1
EndSplineSet
EndChar

StartChar: I
Encoding: 73 73 11
Width: 819
Flags: W
LayerCount: 2
Fore
SplineSet
205 0 m 1,0,-1
 205 205 l 1,1,-1
 410 205 l 1,2,-1
 410 819 l 1,3,-1
 205 819 l 1,4,-1
 205 1024 l 1,5,-1
 819 1024 l 1,6,-1
 819 819 l 1,7,-1
 614 819 l 1,8,-1
 614 205 l 1,9,-1
 819 205 l 1,10,-1
 819 0 l 1,11,-1
 205 0 l 1,0,-1
EndSplineSet
EndChar

StartChar: J
Encoding: 74 74 12
Width: 1229
Flags: W
LayerCount: 2
Fore
SplineSet
410 512 m 1,0,1
 410 463 410 463 425 394 c 0,2,3
 436 346 436 346 470 295 c 0,4,5
 500 249 500 249 536 228 c 0,6,7
 574 205 574 205 614 205 c 0,8,9
 657 205 657 205 693 228 c 0,10,11
 732 254 732 254 759 295 c 0,12,13
 789 340 789 340 804 394 c 0,14,15
 819 451 819 451 819 614 c 2,16,-1
 819 819 l 1,17,-1
 615 819 l 1,18,-1
 615 1024 l 1,19,-1
 1229 1024 l 1,20,-1
 1229 819 l 1,21,-1
 1024 819 l 1,22,-1
 1024 614 l 2,23,24
 1024 410 1024 410 993 316 c 0,25,26
 964 227 964 227 903 151 c 0,27,28
 838 71 838 71 772 35 c 0,29,30
 707 0 707 0 614 0 c 0,31,32
 533 0 533 0 458 39 c 0,33,34
 389 74 389 74 326 151 c 0,35,36
 267 223 267 223 236 316 c 132,-1,37
 205 409 205 409 205 512 c 1,38,-1
 410 512 l 1,0,1
EndSplineSet
EndChar

StartChar: K
Encoding: 75 75 13
Width: 1229
Flags: W
LayerCount: 2
Fore
SplineSet
410 1024 m 1,0,-1
 615 1024 l 1,1,-1
 615 649 l 1,2,-1
 954 1024 l 1,3,-1
 1229 1024 l 1,4,-1
 1047 819 l 1,5,-1
 775 512 l 1,6,-1
 1047 205 l 1,7,-1
 1229 205 l 1,8,-1
 1229 0 l 1,9,-1
 954 0 l 1,10,-1
 615 376 l 1,11,-1
 615 0 l 1,12,-1
 410 0 l 1,13,-1
 205 0 l 1,14,-1
 205 205 l 1,15,-1
 410 205 l 1,16,-1
 410 818 l 1,17,-1
 205 819 l 1,18,-1
 205 1024 l 1,19,-1
 410 1024 l 1,0,-1
EndSplineSet
EndChar

StartChar: L
Encoding: 76 76 14
Width: 1229
Flags: W
LayerCount: 2
Fore
SplineSet
205 1024 m 1,0,-1
 819 1024 l 1,1,-1
 819 819 l 1,2,-1
 615 819 l 1,3,-1
 615 205 l 1,4,-1
 1024 205 l 1,5,-1
 1024 410 l 1,6,-1
 1229 410 l 1,7,-1
 1229 0 l 1,8,-1
 205 0 l 1,9,-1
 205 205 l 1,10,-1
 410 205 l 1,11,-1
 410 819 l 1,12,-1
 205 819 l 1,13,-1
 205 1024 l 1,0,-1
EndSplineSet
EndChar

StartChar: M
Encoding: 77 77 15
Width: 1229
Flags: W
LayerCount: 2
Fore
SplineSet
205 0 m 1028,0,-1
205 0 m 5,1,-1
 205 1024 l 5,2,-1
 410 1024 l 5,3,-1
 717 614 l 5,4,-1
 1024 1024 l 5,5,-1
 1229 1024 l 5,6,-1
 1229 0 l 5,7,-1
 1024 0 l 5,8,-1
 1024 680 l 5,9,-1
 819 410 l 5,10,-1
 615 410 l 5,11,-1
 410 680 l 5,12,-1
 410 0 l 5,13,-1
 205 0 l 5,1,-1
EndSplineSet
EndChar

StartChar: N
Encoding: 78 78 16
Width: 1229
Flags: W
LayerCount: 2
Fore
SplineSet
205 1024 m 1,0,-1
 410 1024 l 1,1,-1
 1024 313 l 1,2,-1
 1024 819 l 1,3,-1
 819 819 l 1,4,-1
 819 1024 l 1,5,-1
 1229 1024 l 1,6,-1
 1229 0 l 1,7,-1
 1024 0 l 1,8,-1
 410 711 l 1,9,-1
 410 205 l 1,10,-1
 615 205 l 1,11,-1
 615 0 l 1,12,-1
 205 0 l 1,13,-1
 205 1024 l 1,0,-1
EndSplineSet
EndChar

StartChar: O
Encoding: 79 79 17
Width: 1229
Flags: W
LayerCount: 2
Fore
SplineSet
717 819 m 132,-1,1
 657 819 657 819 599 796 c 4,2,3
 543 772 543 772 500 729 c 132,-1,4
 457 686 457 686 433 630 c 4,5,6
 410 572 410 572 410 512 c 132,-1,7
 410 452 410 452 433 394 c 4,8,9
 457 338 457 338 500 295 c 132,-1,10
 543 252 543 252 599 228 c 4,11,12
 657 205 657 205 717 205 c 132,-1,13
 777 205 777 205 835 228 c 4,14,15
 891 252 891 252 934 295 c 132,-1,16
 977 338 977 338 1001 394 c 4,17,18
 1024 452 1024 452 1024 512 c 132,-1,19
 1024 572 1024 572 1001 630 c 4,20,21
 977 686 977 686 934 729 c 132,-1,22
 891 772 891 772 835 796 c 4,23,0
 777 819 777 819 717 819 c 132,-1,1
717 1024 m 132,-1,25
 819 1024 819 1024 913 985 c 132,-1,26
 1007 946 1007 946 1078 873 c 4,27,28
 1151 802 1151 802 1190 708 c 132,-1,29
 1229 614 1229 614 1229 512 c 132,-1,30
 1229 410 1229 410 1190 316 c 132,-1,31
 1151 222 1151 222 1078 151 c 4,32,33
 1007 78 1007 78 913 39 c 132,-1,34
 819 0 819 0 717 0 c 132,-1,35
 615 0 615 0 521 39 c 132,-1,36
 427 78 427 78 356 151 c 4,37,38
 283 222 283 222 244 316 c 132,-1,39
 205 410 205 410 205 512 c 132,-1,40
 205 614 205 614 244 708 c 132,-1,41
 283 802 283 802 356 873 c 4,42,43
 427 946 427 946 521 985 c 132,-1,24
 615 1024 615 1024 717 1024 c 132,-1,25
EndSplineSet
EndChar

StartChar: P
Encoding: 80 80 18
Width: 1127
Flags: W
LayerCount: 2
Fore
SplineSet
819 819 m 2,0,-1
 780 819 l 1,1,-1
 615 819 l 1,2,-1
 615 614 l 1,3,-1
 770 614 l 1,4,-1
 819 614 l 2,5,6
 846 617 846 617 858 623 c 0,7,8
 875 628 875 628 892 645 c 0,9,10
 907 662 907 662 914 678 c 0,11,12
 922 697 922 697 922 717 c 0,13,14
 922 735 922 735 914 756 c 0,15,16
 907 772 907 772 892 789 c 0,17,18
 877 804 877 804 858 811 c 0,19,20
 839 819 839 819 819 819 c 2,0,-1
819 1024 m 2,21,22
 881 1024 881 1024 937 1000 c 0,23,24
 993 978 993 978 1036 934 c 0,25,26
 1080 888 1080 888 1103 835 c 0,27,28
 1127 778 1127 778 1127 717 c 128,-1,29
 1127 656 1127 656 1103 599 c 0,30,31
 1080 543 1080 543 1036 500 c 0,32,33
 993 456 993 456 937 433 c 0,34,35
 910 422 910 422 819 410 c 1,36,-1
 770 410 l 1,37,-1
 615 410 l 1,38,-1
 615 205 l 1,39,-1
 819 205 l 1,40,-1
 819 0 l 1,41,-1
 205 0 l 1,42,-1
 205 205 l 1,43,-1
 410 205 l 1,44,-1
 410 819 l 1,45,-1
 205 819 l 1,46,-1
 205 1024 l 1,47,-1
 774 1024 l 1,48,-1
 819 1024 l 2,21,22
EndSplineSet
EndChar

StartChar: Q
Encoding: 81 81 19
Width: 1229
Flags: W
LayerCount: 2
Fore
SplineSet
1229 0 m 1,0,-1
 1028 0 l 1,1,-1
 966 65 l 1,2,3
 833 0 833 0 717 0 c 0,4,5
 709 0 709 0 701 0 c 0,6,7
 695 0 695 0 688 0 c 0,8,9
 682 0 682 0 676 0 c 0,10,11
 610 0 610 0 520 39 c 0,12,13
 428 79 428 79 356 151 c 0,14,15
 281 226 281 226 244 316 c 0,16,17
 205 411 205 411 205 512 c 0,18,19
 205 615 205 615 244 708 c 0,20,21
 282 799 282 799 356 873 c 128,-1,22
 430 947 430 947 521 985 c 0,23,24
 614 1024 614 1024 717 1024 c 128,-1,25
 820 1024 820 1024 913 985 c 0,26,27
 1004 947 1004 947 1078 873 c 128,-1,28
 1152 799 1152 799 1190 708 c 0,29,30
 1229 615 1229 615 1229 512 c 0,31,32
 1229 426 1229 426 1190 316 c 0,33,34
 1168 255 1168 255 1116 196 c 1,35,-1
 1229 74 l 1,36,-1
 1229 0 l 1,0,-1
976 345 m 1,37,38
 992 367 992 367 1001 394 c 0,39,40
 1024 478 1024 478 1024 512 c 0,41,42
 1024 572 1024 572 1001 630 c 0,43,44
 977 686 977 686 934 729 c 128,-1,45
 891 772 891 772 835 796 c 0,46,47
 777 819 777 819 717 819 c 128,-1,48
 657 819 657 819 599 796 c 0,49,50
 543 772 543 772 500 729 c 128,-1,51
 457 686 457 686 433 630 c 0,52,53
 410 572 410 572 410 512 c 128,-1,54
 410 452 410 452 433 394 c 0,55,56
 457 338 457 338 500 295 c 0,57,58
 546 249 546 249 599 228 c 0,59,60
 657 205 657 205 717 205 c 0,61,62
 720 205 720 205 722 205 c 0,63,64
 727 205 l 2,65,66
 729 204 729 204 731 204 c 0,67,68
 773 204 773 204 821 223 c 1,69,-1
 690 367 l 1,70,-1
 819 512 l 1,71,-1
 976 345 l 1,37,38
EndSplineSet
EndChar

StartChar: R
Encoding: 82 82 20
Width: 1229
Flags: W
LayerCount: 2
Fore
SplineSet
687 410 m 1,0,-1
 615 410 l 1,1,-1
 615 205 l 1,2,-1
 614 205 l 1,3,-1
 615 0 l 1,4,-1
 205 0 l 1,5,-1
 205 205 l 1,6,-1
 410 205 l 1,7,-1
 410 819 l 1,8,-1
 205 819 l 1,9,-1
 205 1024 l 1,10,-1
 774 1024 l 1,11,-1
 819 1024 l 1,12,13
 908 1012 908 1012 937 1000 c 0,14,15
 996 976 996 976 1036 934 c 0,16,17
 1083 885 1083 885 1103 835 c 0,18,19
 1127 778 1127 778 1127 717 c 0,20,21
 1127 661 1127 661 1103 599 c 0,22,23
 1083 547 1083 547 1036 500 c 0,24,25
 1011 475 1011 475 924 429 c 1,26,-1
 1229 0 l 5,27,-1
 975 0 l 5,28,-1
 687 410 l 1,0,-1
819 819 m 2,29,-1
 780 819 l 1,30,-1
 615 819 l 1,31,-1
 615 614 l 1,32,-1
 770 614 l 1,33,-1
 819 614 l 2,34,35
 846 617 846 617 858 623 c 0,36,37
 875 628 875 628 892 645 c 0,38,39
 907 662 907 662 914 678 c 0,40,41
 922 697 922 697 922 717 c 0,42,43
 922 735 922 735 914 756 c 0,44,45
 907 772 907 772 892 789 c 0,46,47
 877 804 877 804 858 811 c 0,48,49
 839 819 839 819 819 819 c 2,29,-1
EndSplineSet
EndChar

StartChar: S
Encoding: 83 83 21
Width: 1231
Flags: W
LayerCount: 2
Fore
SplineSet
924 0 m 2,0,1
 512 0 l 0,2,3
 451 0 451 0 394 24 c 0,4,5
 339 46 339 46 295 90 c 256,6,7
 251 134 251 134 229 189 c 0,8,9
 205 246 205 246 205 307 c 2,10,-1
 205 309 l 1,11,-1
 410 309 l 1,12,-1
 410 307 l 2,13,14
 410 289 410 289 418 268 c 0,15,16
 424 253 424 253 441 236 c 152,-1,17
 458 219 458 219 473 213 c 0,18,19
 494 205 494 205 512 205 c 2,20,-1
 922 205 l 1,21,-1
 924 205 l 2,22,23
 942 205 942 205 963 213 c 0,24,25
 982 220 982 220 996 236 c 0,26,27
 1011 249 1011 249 1018 268 c 0,28,29
 1026 285 1026 285 1026 307 c 128,-1,30
 1026 329 1026 329 1018 346 c 0,31,32
 1011 364 1011 364 996 379 c 0,33,34
 983 392 983 392 963 401 c 256,35,36
 943 410 943 410 924 410 c 2,37,-1
 513 410 l 1,38,-1
 512 410 l 2,39,40
 446 410 446 410 394 433 c 0,41,42
 334 461 334 461 295 500 c 0,43,44
 251 544 251 544 229 599 c 0,45,46
 205 656 205 656 205 717 c 128,-1,47
 205 778 205 778 229 835 c 0,48,49
 251 890 251 890 295 934 c 256,50,51
 339 978 339 978 394 1000 c 0,52,53
 451 1024 451 1024 512 1024 c 2,54,-1
 922 1024 l 2,55,56
 983 1024 983 1024 1040 1000 c 0,57,58
 1095 978 1095 978 1139 934 c 256,59,60
 1183 890 1183 890 1205 835 c 0,61,62
 1229 778 1229 778 1229 717 c 2,63,-1
 1229 715 l 1,64,-1
 1024 715 l 1,65,-1
 1024 717 l 2,66,67
 1024 735 1024 735 1016 756 c 0,68,69
 1010 771 1010 771 993 788 c 152,-1,70
 976 805 976 805 961 811 c 0,71,72
 940 819 940 819 922 819 c 2,73,-1
 512 819 l 2,74,75
 494 819 494 819 473 811 c 0,76,77
 455 804 455 804 440 789 c 128,-1,78
 425 774 425 774 418 756 c 0,79,80
 410 735 410 735 410 717 c 128,-1,81
 410 699 410 699 418 678 c 0,82,83
 425 659 425 659 441 645 c 0,84,85
 452 633 452 633 473 623 c 0,86,87
 493 614 493 614 512 614 c 2,88,-1
 513 614 l 1,89,-1
 924 614 l 2,90,91
 987 614 987 614 1042 591 c 0,92,93
 1094 569 1094 569 1141 524 c 0,94,95
 1185 482 1185 482 1207 425 c 0,96,97
 1231 368 1231 368 1231 307 c 128,-1,98
 1231 246 1231 246 1207 189 c 0,99,100
 1185 134 1185 134 1141 90 c 256,101,102
 1097 46 1097 46 1042 24 c 0,103,104
 985 0 985 0 924 0 c 2,0,1
EndSplineSet
EndChar

StartChar: T
Encoding: 84 84 22
Width: 1229
Flags: W
LayerCount: 2
Fore
SplineSet
1024 819 m 1024,0,-1
1024 819 m 1024,1,-1
205 1024 m 1,2,-1
 1229 1024 l 1,3,-1
 1229 614 l 1,4,-1
 1024 614 l 1,5,-1
 1024 819 l 1,6,-1
 819 819 l 1,7,-1
 819 205 l 1,8,-1
 1024 205 l 1,9,-1
 1024 0 l 1,10,-1
 410 0 l 1,11,-1
 410 205 l 1,12,-1
 615 205 l 1,13,-1
 615 819 l 1,14,-1
 410 819 l 1,15,-1
 410 614 l 1,16,-1
 205 614 l 1,17,-1
 205 1024 l 1,2,-1
EndSplineSet
EndChar

StartChar: U
Encoding: 85 85 23
Width: 1229
Flags: W
LayerCount: 2
Fore
SplineSet
1001 394 m 0,0,1
 1024 451 1024 451 1024 614 c 2,2,-1
 1024 1024 l 1,3,-1
 1229 1024 l 1,4,-1
 1229 614 l 2,5,6
 1229 410 1229 410 1190 316 c 0,7,8
 1152 225 1152 225 1078 151 c 128,-1,9
 1004 77 1004 77 913 39 c 0,10,11
 819 0 819 0 717 0 c 128,-1,12
 615 0 615 0 521 39 c 0,13,14
 430 77 430 77 356 151 c 0,15,16
 278 229 278 229 244 316 c 0,17,18
 205 416 205 416 205 614 c 2,19,-1
 205 1024 l 1,20,-1
 410 1024 l 1,21,-1
 410 614 l 2,22,23
 410 450 410 450 433 394 c 0,24,25
 455 340 455 340 500 295 c 0,26,27
 546 249 546 249 599 228 c 0,28,29
 657 205 657 205 717 205 c 0,30,31
 781 205 781 205 835 228 c 0,32,33
 891 252 891 252 934 295 c 0,34,35
 981 342 981 342 1001 394 c 0,0,1
EndSplineSet
EndChar

StartChar: V
Encoding: 86 86 24
Width: 1229
Flags: W
LayerCount: 2
Fore
SplineSet
717 298 m 5,0,-1
 1008 1024 l 5,1,-1
 1229 1024 l 5,2,-1
 1229 819 l 5,3,-1
 1147 819 l 5,4,-1
 819 0 l 5,5,-1
 615 0 l 5,6,-1
 287 819 l 5,7,-1
 205 819 l 5,8,-1
 205 1024 l 5,9,-1
 426 1024 l 5,10,-1
 717 298 l 5,0,-1
EndSplineSet
EndChar

StartChar: W
Encoding: 87 87 25
Width: 1231
Flags: W
LayerCount: 2
Fore
SplineSet
1231 1024 m 1,0,-1
 1157 0 l 1,1,-1
 819 0 l 1,2,-1
 717 307 l 1,3,-1
 615 0 l 1,4,-1
 277 0 l 1,5,-1
 205 1024 l 1,6,-1
 414 1024 l 1,7,-1
 470 205 l 1,8,-1
 615 614 l 1,9,-1
 819 614 l 1,10,-1
 968 205 l 1,11,-1
 1024 1024 l 1,12,-1
 1231 1024 l 1,0,-1
EndSplineSet
EndChar

StartChar: X
Encoding: 88 88 26
Width: 1229
Flags: W
LayerCount: 2
Fore
SplineSet
1229 0 m 5,0,-1
 975 0 l 5,1,-1
 717 354 l 5,2,-1
 459 0 l 5,3,-1
 205 0 l 5,4,-1
 205 205 l 5,5,-1
 355 205 l 5,6,-1
 579 512 l 5,7,-1
 355 819 l 5,8,-1
 205 819 l 5,9,-1
 205 1024 l 5,10,-1
 459 1024 l 5,11,-1
 717 669 l 5,12,-1
 975 1024 l 5,13,-1
 1229 1024 l 5,14,-1
 1229 819 l 5,15,-1
 1079 819 l 5,16,-1
 855 512 l 5,17,-1
 1079 205 l 5,18,-1
 1229 205 l 5,19,-1
 1229 0 l 5,0,-1
EndSplineSet
EndChar

StartChar: Y
Encoding: 89 89 27
Width: 1229
Flags: W
LayerCount: 2
Fore
SplineSet
615 466 m 5,0,-1
 580 514 l 5,1,-1
 507 613 l 5,2,-1
 355 819 l 5,3,-1
 205 819 l 5,4,-1
 205 1024 l 5,5,-1
 459 1024 l 5,6,-1
 717 669 l 5,7,-1
 975 1024 l 5,8,-1
 1229 1024 l 5,9,-1
 1229 819 l 5,10,-1
 1079 819 l 5,11,-1
 856 514 l 5,12,-1
 819 464 l 5,13,-1
 819 0 l 5,14,-1
 615 0 l 5,15,-1
 615 466 l 5,0,-1
EndSplineSet
EndChar

StartChar: Z
Encoding: 90 90 28
Width: 1229
Flags: W
LayerCount: 2
Fore
SplineSet
516 205 m 1024,0,-1
1024 205 m 1024,1,-1
918 819 m 1024,2,-1
1024 205 m 1024,3,-1
1229 1024 m 1,4,-1
 1229 819 l 1,5,-1
 518 205 l 1,6,-1
 1024 205 l 1,7,-1
 1024 410 l 1,8,-1
 1229 410 l 1,9,-1
 1229 0 l 1,10,-1
 205 0 l 1,11,-1
 205 205 l 1,12,-1
 916 819 l 1,13,-1
 410 819 l 1,14,-1
 410 614 l 1,15,-1
 205 614 l 1,16,-1
 205 1024 l 1,17,-1
 1229 1024 l 1,4,-1
EndSplineSet
EndChar

StartChar: a
Encoding: 97 97 29
Width: 1229
Flags: W
LayerCount: 2
Fore
SplineSet
717 728 m 5,0,-1
 590 410 l 5,1,-1
 844 410 l 5,2,-1
 717 728 l 5,0,-1
615 1024 m 5,3,-1
 819 1024 l 5,4,-1
 1147 205 l 5,5,-1
 1229 205 l 5,6,-1
 1229 0 l 5,7,-1
 1008 0 l 5,8,-1
 925 205 l 5,9,-1
 509 205 l 5,10,-1
 426 0 l 5,11,-1
 205 0 l 5,12,-1
 205 205 l 5,13,-1
 287 205 l 5,14,-1
 615 1024 l 5,3,-1
EndSplineSet
EndChar

StartChar: b
Encoding: 98 98 30
Width: 1127
Flags: W
LayerCount: 2
Fore
SplineSet
513 819 m 2,0,1
 498 819 498 819 474 810 c 0,2,3
 457 805 457 805 440 788 c 0,4,5
 427 775 427 775 418 755 c 0,6,7
 410 736 410 736 410 716 c 0,8,9
 410 695 410 695 418 677 c 0,10,11
 425 661 425 661 440 644 c 0,12,13
 452 632 452 632 474 622 c 0,14,15
 492 614 492 614 513 614 c 2,16,-1
 562 614 l 1,17,-1
 717 614 l 1,18,-1
 717 819 l 1,19,-1
 552 819 l 1,20,-1
 513 819 l 2,0,1
562 0 m 1,21,-1
 513 0 l 1,22,23
 421 13 421 13 395 24 c 0,24,25
 338 46 338 46 296 90 c 0,26,27
 249 139 249 139 229 189 c 0,28,29
 205 246 205 246 205 307 c 0,30,31
 205 362 205 362 229 425 c 0,32,33
 245 468 245 468 283 512 c 1,34,-1
 283 513 l 1,35,36
 246 553 246 553 229 599 c 0,37,38
 205 660 205 660 205 717 c 0,39,40
 205 776 205 776 229 835 c 0,41,42
 251 889 251 889 296 934 c 0,43,44
 338 978 338 978 395 1000 c 0,45,46
 426 1012 426 1012 513 1024 c 1,47,-1
 558 1024 l 1,48,-1
 717 1024 l 1,49,-1
 1127 1024 l 1,50,-1
 1127 819 l 1,51,-1
 922 819 l 1,52,-1
 922 205 l 1,53,-1
 1127 205 l 1,54,-1
 1127 0 l 1,55,-1
 562 0 l 1,21,-1
513 410 m 2,56,57
 498 410 498 410 474 401 c 0,58,59
 457 396 457 396 440 379 c 0,60,61
 427 366 427 366 418 346 c 0,62,63
 410 327 410 327 410 307 c 0,64,65
 410 286 410 286 418 268 c 0,66,67
 425 252 425 252 440 235 c 0,68,69
 452 223 452 223 474 213 c 0,70,71
 492 205 492 205 513 205 c 2,72,-1
 562 205 l 1,73,-1
 717 205 l 1,74,-1
 717 410 l 1,75,-1
 552 410 l 1,76,-1
 513 410 l 2,56,57
EndSplineSet
EndChar

StartChar: c
Encoding: 99 99 31
Width: 1229
Flags: W
LayerCount: 2
Fore
SplineSet
434 393 m 2,0,1
 456 339 456 339 500 295 c 128,-1,2
 544 251 544 251 598 229 c 0,3,4
 655 205 655 205 717 205 c 128,-1,5
 779 205 779 205 836 229 c 0,6,7
 890 251 890 251 934 295 c 128,-1,8
 978 339 978 339 1000 393 c 0,9,10
 1024 450 1024 450 1024 512 c 128,-1,11
 1024 574 1024 574 1000 631 c 0,12,13
 978 685 978 685 934 729 c 128,-1,14
 890 773 890 773 836 795 c 0,15,16
 779 819 779 819 717 819 c 128,-1,17
 655 819 655 819 598 795 c 0,18,19
 544 773 544 773 500 729 c 128,-1,20
 456 685 456 685 434 631 c 2,21,-1
 428 614 l 1,22,-1
 205 614 l 1,23,-1
 205 1024 l 1,24,-1
 410 1024 l 1,25,-1
 410 922 l 1,26,27
 428 946 428 946 520 985 c 0,28,29
 615 1024 615 1024 717 1024 c 128,-1,30
 819 1024 819 1024 914 985 c 0,31,32
 1007 945 1007 945 1078 873 c 0,33,34
 1150 802 1150 802 1190 709 c 0,35,36
 1229 614 1229 614 1229 512 c 128,-1,37
 1229 410 1229 410 1190 315 c 0,38,39
 1150 222 1150 222 1078 151 c 0,40,41
 1007 79 1007 79 914 39 c 0,42,43
 819 0 819 0 717 0 c 128,-1,44
 615 0 615 0 520 39 c 0,45,46
 425 79 425 79 357 152 c 1,47,48
 284 220 284 220 244 315 c 2,49,-1
 205 410 l 1,50,-1
 428 410 l 1,51,-1
 434 393 l 2,0,1
EndSplineSet
EndChar

StartChar: d
Encoding: 100 100 32
Width: 1229
Flags: W
LayerCount: 2
Fore
SplineSet
717 205 m 2,0,1
 766 205 l 2,2,-1
 819 205 l 1,3,-1
 819 819 l 1,4,-1
 717 819 l 2,5,6
 655 819 655 819 598 795 c 0,7,8
 544 773 544 773 500 729 c 128,-1,9
 456 685 456 685 434 631 c 0,10,11
 410 574 410 574 410 512 c 128,-1,12
 410 450 410 450 434 393 c 0,13,14
 456 339 456 339 500 295 c 128,-1,15
 544 251 544 251 598 229 c 0,16,17
 655 205 655 205 717 205 c 2,0,1
717 0 m 2,18,19
 615 0 615 0 520 39 c 0,20,21
 427 79 427 79 356 151 c 0,22,23
 284 222 284 222 244 315 c 0,24,25
 205 410 205 410 205 512 c 128,-1,26
 205 614 205 614 244 709 c 0,27,28
 284 802 284 802 356 873 c 0,29,30
 427 945 427 945 520 985 c 0,31,32
 615 1024 615 1024 717 1024 c 2,33,-1
 1229 1024 l 1,34,-1
 1229 819 l 1,35,-1
 1024 819 l 1,36,-1
 1024 205 l 1,37,-1
 1229 205 l 1,38,-1
 1229 0 l 1,39,-1
 846 0 l 1,40,-1
 717 0 l 2,18,19
EndSplineSet
EndChar

StartChar: e
Encoding: 101 101 33
Width: 1229
Flags: W
LayerCount: 2
Fore
SplineSet
1229 1024 m 1,0,-1
 1229 819 l 1,1,-1
 1024 819 l 1,2,-1
 1024 205 l 1,3,-1
 1229 205 l 1,4,-1
 1229 0 l 1,5,-1
 205 0 l 1,6,-1
 205 410 l 1,7,-1
 410 410 l 1,8,-1
 410 205 l 1,9,-1
 819 205 l 1,10,-1
 819 410 l 1,11,-1
 615 410 l 1,12,-1
 615 614 l 1,13,-1
 819 614 l 1,14,-1
 819 819 l 1,15,-1
 410 819 l 1,16,-1
 410 614 l 1,17,-1
 205 614 l 1,18,-1
 205 1024 l 1,19,-1
 1229 1024 l 1,0,-1
EndSplineSet
EndChar

StartChar: f
Encoding: 102 102 34
Width: 1229
Flags: W
LayerCount: 2
Fore
SplineSet
819 205 m 5,0,-1
 819 410 l 5,1,-1
 615 410 l 5,2,-1
 615 614 l 5,3,-1
 819 614 l 5,4,-1
 819 819 l 5,5,-1
 410 819 l 5,6,-1
 410 614 l 5,7,-1
 205 614 l 5,8,-1
 205 1024 l 5,9,-1
 1229 1024 l 5,10,-1
 1229 819 l 5,11,-1
 1024 819 l 5,12,-1
 1024 205 l 5,13,-1
 1229 205 l 5,14,-1
 1229 0 l 5,15,-1
 615 0 l 5,16,-1
 615 205 l 5,17,-1
 819 205 l 5,0,-1
EndSplineSet
EndChar

StartChar: g
Encoding: 103 103 35
Width: 1229
Flags: W
LayerCount: 2
Fore
SplineSet
497 725 m 1,0,-1
 251 725 l 1,1,-1
 254 730 l 2,2,3
 306 824 306 824 357 872 c 0,4,5
 439 951 439 951 520 985 c 0,6,7
 613 1024 613 1024 717 1024 c 0,8,9
 819 1024 819 1024 914 985 c 0,10,11
 1006 947 1006 947 1078 873 c 0,12,13
 1152 801 1152 801 1190 709 c 0,14,15
 1229 614 1229 614 1229 512 c 128,-1,16
 1229 410 1229 410 1190 315 c 0,17,18
 1152 223 1152 223 1078 151 c 0,19,20
 1006 77 1006 77 914 39 c 0,21,22
 819 0 819 0 717 0 c 128,-1,23
 615 0 615 0 520 39 c 0,24,25
 428 78 428 78 410 102 c 1,26,-1
 410 0 l 1,27,-1
 205 0 l 1,28,-1
 205 512 l 1,29,-1
 615 513 l 1,30,-1
 615 332 l 1,31,-1
 466 333 l 1,32,-1
 500 295 l 2,33,34
 542 253 542 253 598 229 c 0,35,36
 658 205 658 205 717 205 c 128,-1,37
 776 205 776 205 836 229 c 0,38,39
 892 253 892 253 934 295 c 128,-1,40
 976 337 976 337 1000 393 c 0,41,42
 1024 453 1024 453 1024 512 c 128,-1,43
 1024 571 1024 571 1000 631 c 0,44,45
 976 687 976 687 934 729 c 128,-1,46
 892 771 892 771 836 795 c 0,47,48
 776 819 776 819 717 819 c 128,-1,49
 658 819 658 819 598 795 c 0,50,51
 530 767 530 767 500 729 c 2,52,-1
 497 725 l 1,0,-1
EndSplineSet
EndChar

StartChar: h
Encoding: 104 104 36
Width: 1229
Flags: W
LayerCount: 2
Fore
SplineSet
1229 1024 m 1,0,-1
 1229 0 l 1,1,-1
 1024 0 l 1,2,-1
 1024 410 l 1,3,-1
 410 410 l 1,4,-1
 410 0 l 1,5,-1
 205 0 l 1,6,-1
 205 1024 l 1,7,-1
 410 1024 l 1,8,-1
 410 614 l 1,9,-1
 1024 614 l 1,10,-1
 1024 1024 l 1,11,-1
 1229 1024 l 1,0,-1
EndSplineSet
EndChar

StartChar: i
Encoding: 105 105 37
Width: 819
Flags: W
LayerCount: 2
Fore
SplineSet
819 0 m 1,0,-1
 205 0 l 1,1,-1
 205 205 l 1,2,-1
 410 205 l 1,3,-1
 410 819 l 1,4,-1
 205 819 l 1,5,-1
 205 1024 l 1,6,-1
 819 1024 l 1,7,-1
 819 819 l 1,8,-1
 614 819 l 1,9,-1
 614 205 l 1,10,-1
 819 205 l 1,11,-1
 819 0 l 1,0,-1
EndSplineSet
EndChar

StartChar: j
Encoding: 106 106 38
Width: 1229
Flags: W
LayerCount: 2
Fore
SplineSet
1024 512 m 1,0,1
 1229 512 l 1,2,3
 1229 409 1229 409 1198 316 c 0,4,5
 1167 222 1167 222 1108 151 c 0,6,7
 1045 74 1045 74 976 39 c 0,8,9
 901 0 901 0 820 0 c 0,10,11
 727 0 727 0 662 35 c 0,12,13
 596 71 596 71 531 151 c 0,14,15
 470 227 470 227 441 316 c 0,16,17
 410 410 410 410 410 614 c 2,18,-1
 410 819 l 1,19,-1
 205 819 l 1,20,-1
 205 1024 l 1,21,-1
 819 1024 l 1,22,-1
 819 819 l 1,23,-1
 615 819 l 1,24,-1
 615 614 l 2,25,26
 615 451 615 451 630 394 c 0,27,28
 645 340 645 340 675 295 c 0,29,30
 702 254 702 254 741 228 c 0,31,32
 777 205 777 205 820 205 c 0,33,34
 860 205 860 205 898 228 c 0,35,36
 934 249 934 249 964 295 c 0,37,38
 998 346 998 346 1009 394 c 0,39,40
 1024 463 1024 463 1024 512 c 1,0,1
EndSplineSet
EndChar

StartChar: k
Encoding: 107 107 39
Width: 1229
Flags: W
LayerCount: 2
Fore
SplineSet
1024 1024 m 1,0,-1
 1229 1024 l 1,1,-1
 1229 819 l 1,2,-1
 1024 818 l 1,3,-1
 1024 205 l 1,4,-1
 1229 205 l 1,5,-1
 1229 0 l 1,6,-1
 1024 0 l 1,7,-1
 819 0 l 1,8,-1
 819 376 l 1,9,-1
 480 0 l 1,10,-1
 205 0 l 1,11,-1
 205 205 l 1,12,-1
 387 205 l 1,13,-1
 659 512 l 1,14,-1
 387 819 l 1,15,-1
 205 1024 l 1,16,-1
 480 1024 l 1,17,-1
 819 649 l 1,18,-1
 819 1024 l 1,19,-1
 1024 1024 l 1,0,-1
EndSplineSet
EndChar

StartChar: l
Encoding: 108 108 40
Width: 1229
Flags: W
LayerCount: 2
Fore
SplineSet
1229 1024 m 1,0,-1
 1229 819 l 1,1,-1
 1024 819 l 1,2,-1
 1024 205 l 1,3,-1
 1229 205 l 1,4,-1
 1229 0 l 1,5,-1
 205 0 l 1,6,-1
 205 410 l 1,7,-1
 410 410 l 1,8,-1
 410 205 l 1,9,-1
 819 205 l 1,10,-1
 819 819 l 1,11,-1
 615 819 l 1,12,-1
 615 1024 l 1,13,-1
 1229 1024 l 1,0,-1
EndSplineSet
EndChar

StartChar: m
Encoding: 109 109 41
Width: 1229
Flags: W
LayerCount: 2
Fore
SplineSet
205 0 m 1024,0,-1
205 0 m 1,1,-1
 205 1024 l 1,2,-1
 410 1024 l 1,3,-1
 717 614 l 1,4,-1
 1024 1024 l 1,5,-1
 1229 1024 l 1,6,-1
 1229 0 l 1,7,-1
 1024 0 l 1,8,-1
 1024 680 l 1,9,-1
 819 410 l 1,10,-1
 615 410 l 1,11,-1
 410 680 l 1,12,-1
 410 0 l 1,13,-1
 205 0 l 1,1,-1
EndSplineSet
EndChar

StartChar: n
Encoding: 110 110 42
Width: 1229
Flags: W
LayerCount: 2
Fore
SplineSet
1229 1024 m 1,0,-1
 1229 0 l 1,1,-1
 819 0 l 1,2,-1
 819 205 l 1,3,-1
 1024 205 l 1,4,-1
 1024 711 l 1,5,-1
 410 0 l 1,6,-1
 205 0 l 1,7,-1
 205 1024 l 1,8,-1
 615 1024 l 1,9,-1
 615 819 l 1,10,-1
 410 819 l 1,11,-1
 410 313 l 1,12,-1
 1024 1024 l 1,13,-1
 1229 1024 l 1,0,-1
EndSplineSet
EndChar

StartChar: o
Encoding: 111 111 43
Width: 1229
Flags: W
LayerCount: 2
Fore
SplineSet
717 819 m 128,-1,1
 657 819 657 819 599 796 c 0,2,3
 543 772 543 772 500 729 c 128,-1,4
 457 686 457 686 433 630 c 0,5,6
 410 572 410 572 410 512 c 128,-1,7
 410 452 410 452 433 394 c 0,8,9
 457 338 457 338 500 295 c 128,-1,10
 543 252 543 252 599 228 c 0,11,12
 657 205 657 205 717 205 c 128,-1,13
 777 205 777 205 835 228 c 0,14,15
 891 252 891 252 934 295 c 128,-1,16
 977 338 977 338 1001 394 c 0,17,18
 1024 452 1024 452 1024 512 c 128,-1,19
 1024 572 1024 572 1001 630 c 0,20,21
 977 686 977 686 934 729 c 128,-1,22
 891 772 891 772 835 796 c 0,23,0
 777 819 777 819 717 819 c 128,-1,1
717 1024 m 128,-1,25
 819 1024 819 1024 913 985 c 128,-1,26
 1007 946 1007 946 1078 873 c 0,27,28
 1151 802 1151 802 1190 708 c 128,-1,29
 1229 614 1229 614 1229 512 c 128,-1,30
 1229 410 1229 410 1190 316 c 128,-1,31
 1151 222 1151 222 1078 151 c 0,32,33
 1007 78 1007 78 913 39 c 128,-1,34
 819 0 819 0 717 0 c 128,-1,35
 615 0 615 0 521 39 c 128,-1,36
 427 78 427 78 356 151 c 0,37,38
 283 222 283 222 244 316 c 128,-1,39
 205 410 205 410 205 512 c 128,-1,40
 205 614 205 614 244 708 c 128,-1,41
 283 802 283 802 356 873 c 0,42,43
 427 946 427 946 521 985 c 128,-1,24
 615 1024 615 1024 717 1024 c 128,-1,25
EndSplineSet
EndChar

StartChar: p
Encoding: 112 112 44
Width: 1127
Flags: W
LayerCount: 2
Fore
SplineSet
513 819 m 2,0,1
 493 819 493 819 474 811 c 0,2,3
 455 804 455 804 440 789 c 0,4,5
 425 772 425 772 418 756 c 0,6,7
 410 735 410 735 410 717 c 0,8,9
 410 697 410 697 418 678 c 0,10,11
 425 662 425 662 440 645 c 0,12,13
 457 628 457 628 474 623 c 0,14,15
 486 617 486 617 513 614 c 2,16,-1
 562 614 l 1,17,-1
 717 614 l 1,18,-1
 717 819 l 1,19,-1
 552 819 l 1,20,-1
 513 819 l 2,0,1
513 1024 m 2,21,22
 558 1024 l 2,23,-1
 1127 1024 l 1,24,-1
 1127 819 l 1,25,-1
 922 819 l 1,26,-1
 922 205 l 1,27,-1
 1127 205 l 1,28,-1
 1127 0 l 1,29,-1
 513 0 l 1,30,-1
 513 205 l 1,31,-1
 717 205 l 1,32,-1
 717 410 l 1,33,-1
 562 410 l 1,34,-1
 513 410 l 1,35,36
 422 422 422 422 395 433 c 0,37,38
 339 456 339 456 296 500 c 0,39,40
 252 543 252 543 229 599 c 0,41,42
 205 656 205 656 205 717 c 128,-1,43
 205 778 205 778 229 835 c 128,-1,44
 253 892 253 892 296 934 c 0,45,46
 339 978 339 978 395 1000 c 0,47,48
 456 1024 456 1024 513 1024 c 2,21,22
EndSplineSet
EndChar

StartChar: q
Encoding: 113 113 45
Width: 1229
Flags: W
LayerCount: 2
Fore
SplineSet
205 0 m 1,0,-1
 205 82 l 1,1,-1
 315 200 l 1,2,3
 265 257 265 257 244 316 c 0,4,5
 205 426 205 426 205 512 c 0,6,7
 205 615 205 615 244 708 c 0,8,9
 282 799 282 799 356 873 c 128,-1,10
 430 947 430 947 521 985 c 0,11,12
 614 1024 614 1024 717 1024 c 128,-1,13
 820 1024 820 1024 913 985 c 0,14,15
 1004 947 1004 947 1078 873 c 128,-1,16
 1152 799 1152 799 1190 708 c 0,17,18
 1229 615 1229 615 1229 512 c 0,19,20
 1229 411 1229 411 1190 316 c 0,21,22
 1153 226 1153 226 1078 151 c 0,23,24
 1006 79 1006 79 914 39 c 0,25,26
 824 0 824 0 758 0 c 0,27,28
 752 0 752 0 746 0 c 0,29,30
 739 0 739 0 733 0 c 0,31,32
 725 0 725 0 717 0 c 0,33,34
 601 0 601 0 470 64 c 1,35,-1
 410 0 l 1,36,-1
 205 0 l 1,0,-1
454 350 m 1,37,-1
 599 507 l 1,38,-1
 751 367 l 1,39,-1
 616 222 l 1,40,41
 661 204 661 204 703 204 c 0,42,43
 705 204 705 204 707 205 c 2,44,-1
 712 205 l 0,45,46
 714 205 714 205 717 205 c 0,47,48
 777 205 777 205 835 228 c 0,49,50
 888 249 888 249 934 295 c 128,-1,51
 980 341 980 341 1001 394 c 0,52,53
 1024 452 1024 452 1024 512 c 0,54,55
 1024 576 1024 576 1001 630 c 0,56,57
 977 686 977 686 934 729 c 0,58,59
 888 775 888 775 835 796 c 0,60,61
 777 819 777 819 717 819 c 0,62,63
 653 819 653 819 599 796 c 0,64,65
 543 772 543 772 500 729 c 0,66,67
 454 683 454 683 433 630 c 0,68,69
 410 572 410 572 410 512 c 0,70,71
 410 466 410 466 433 394 c 0,72,73
 441 369 441 369 454 350 c 1,37,-1
EndSplineSet
EndChar

StartChar: r
Encoding: 114 114 46
Width: 1229
Flags: W
LayerCount: 2
Fore
SplineSet
747 410 m 1,0,-1
 455 0 l 5,1,-1
 205 0 l 1,2,-1
 510 429 l 1,3,4
 429 472 429 472 398 500 c 0,5,6
 357 537 357 537 331 599 c 0,7,8
 307 656 307 656 307 717 c 0,9,10
 307 776 307 776 331 835 c 0,11,12
 351 885 351 885 398 934 c 0,13,14
 440 978 440 978 497 1000 c 0,15,16
 528 1012 528 1012 615 1024 c 1,17,-1
 660 1024 l 1,18,-1
 1229 1024 l 1,19,-1
 1229 819 l 1,20,-1
 1024 819 l 1,21,-1
 1024 205 l 1,22,-1
 1229 205 l 1,23,-1
 1229 0 l 1,24,-1
 819 0 l 1,25,-1
 820 205 l 1,26,-1
 819 205 l 1,27,-1
 819 410 l 1,28,-1
 747 410 l 1,0,-1
615 819 m 2,29,30
 595 819 595 819 576 811 c 0,31,32
 557 804 557 804 542 789 c 0,33,34
 527 772 527 772 520 756 c 0,35,36
 512 735 512 735 512 717 c 0,37,38
 512 697 512 697 520 678 c 0,39,40
 527 662 527 662 542 645 c 0,41,42
 559 628 559 628 576 623 c 0,43,44
 588 617 588 617 615 614 c 2,45,-1
 664 614 l 1,46,-1
 819 614 l 1,47,-1
 819 819 l 1,48,-1
 654 819 l 1,49,-1
 615 819 l 2,29,30
EndSplineSet
EndChar

StartChar: s
Encoding: 115 115 47
Width: 1231
Flags: W
LayerCount: 2
Fore
SplineSet
512 0 m 2,0,1
 451 0 451 0 394 24 c 0,2,3
 339 46 339 46 295 90 c 256,4,5
 251 134 251 134 229 189 c 0,6,7
 205 246 205 246 205 307 c 128,-1,8
 205 368 205 368 229 425 c 0,9,10
 251 482 251 482 295 524 c 0,11,12
 342 569 342 569 394 591 c 0,13,14
 449 614 449 614 512 614 c 2,15,-1
 923 614 l 1,16,-1
 924 614 l 2,17,18
 943 614 943 614 963 623 c 0,19,20
 984 633 984 633 995 645 c 0,21,22
 1011 659 1011 659 1018 678 c 0,23,24
 1026 699 1026 699 1026 717 c 128,-1,25
 1026 735 1026 735 1018 756 c 0,26,27
 1011 774 1011 774 996 789 c 128,-1,28
 981 804 981 804 963 811 c 0,29,30
 942 819 942 819 924 819 c 2,31,-1
 514 819 l 2,32,33
 496 819 496 819 475 811 c 0,34,35
 460 805 460 805 443 788 c 152,-1,36
 426 771 426 771 420 756 c 0,37,38
 412 735 412 735 412 717 c 2,39,-1
 412 715 l 1,40,-1
 207 715 l 1,41,-1
 207 717 l 2,42,43
 207 778 207 778 231 835 c 0,44,45
 253 890 253 890 297 934 c 256,46,47
 341 978 341 978 396 1000 c 0,48,49
 453 1024 453 1024 514 1024 c 2,50,-1
 924 1024 l 2,51,52
 985 1024 985 1024 1042 1000 c 0,53,54
 1097 978 1097 978 1141 934 c 256,55,56
 1185 890 1185 890 1207 835 c 0,57,58
 1231 778 1231 778 1231 717 c 128,-1,59
 1231 656 1231 656 1207 599 c 0,60,61
 1185 544 1185 544 1141 500 c 0,62,63
 1102 461 1102 461 1042 433 c 0,64,65
 990 410 990 410 924 410 c 2,66,-1
 923 410 l 1,67,-1
 512 410 l 2,68,69
 493 410 493 410 473 401 c 256,70,71
 453 392 453 392 440 379 c 0,72,73
 425 364 425 364 418 346 c 0,74,75
 410 329 410 329 410 307 c 128,-1,76
 410 285 410 285 418 268 c 0,77,78
 425 249 425 249 440 236 c 0,79,80
 454 220 454 220 473 213 c 0,81,82
 494 205 494 205 512 205 c 2,83,-1
 514 205 l 1,84,-1
 924 205 l 2,85,86
 942 205 942 205 963 213 c 0,87,88
 978 219 978 219 995 236 c 152,-1,89
 1012 253 1012 253 1018 268 c 0,90,91
 1026 289 1026 289 1026 307 c 2,92,-1
 1026 309 l 1,93,-1
 1231 309 l 1,94,-1
 1231 307 l 2,95,96
 1231 246 1231 246 1207 189 c 0,97,98
 1185 134 1185 134 1141 90 c 256,99,100
 1097 46 1097 46 1042 24 c 0,101,102
 985 0 985 0 924 0 c 2,103,-1
 512 0 l 2,0,1
EndSplineSet
EndChar

StartChar: t
Encoding: 116 116 48
Width: 1229
Flags: W
LayerCount: 2
Fore
SplineSet
410 819 m 1024,0,-1
410 819 m 1024,1,-1
1229 1024 m 1,2,-1
 1229 614 l 1,3,-1
 1024 614 l 1,4,-1
 1024 819 l 1,5,-1
 819 819 l 1,6,-1
 819 205 l 1,7,-1
 1024 205 l 1,8,-1
 1024 0 l 1,9,-1
 410 0 l 1,10,-1
 410 205 l 1,11,-1
 615 205 l 1,12,-1
 615 819 l 1,13,-1
 410 819 l 1,14,-1
 410 614 l 1,15,-1
 205 614 l 1,16,-1
 205 1024 l 1,17,-1
 1229 1024 l 1,2,-1
EndSplineSet
EndChar

StartChar: u
Encoding: 117 117 49
Width: 1229
Flags: W
LayerCount: 2
Fore
SplineSet
1001 394 m 4,0,1
 1024 451 1024 451 1024 614 c 6,2,-1
 1024 1024 l 5,3,-1
 1229 1024 l 5,4,-1
 1229 614 l 6,5,6
 1229 410 1229 410 1190 316 c 4,7,8
 1152 225 1152 225 1078 151 c 132,-1,9
 1004 77 1004 77 913 39 c 4,10,11
 819 0 819 0 717 0 c 132,-1,12
 615 0 615 0 521 39 c 4,13,14
 430 77 430 77 356 151 c 4,15,16
 278 229 278 229 244 316 c 4,17,18
 205 416 205 416 205 614 c 6,19,-1
 205 1024 l 5,20,-1
 410 1024 l 5,21,-1
 410 614 l 6,22,23
 410 450 410 450 433 394 c 4,24,25
 455 340 455 340 500 295 c 4,26,27
 546 249 546 249 599 228 c 4,28,29
 657 205 657 205 717 205 c 4,30,31
 781 205 781 205 835 228 c 4,32,33
 891 252 891 252 934 295 c 4,34,35
 981 342 981 342 1001 394 c 4,0,1
EndSplineSet
EndChar

StartChar: v
Encoding: 118 118 50
Width: 1229
Flags: W
LayerCount: 2
Fore
SplineSet
717 298 m 1,0,-1
 1008 1024 l 1,1,-1
 1229 1024 l 1,2,-1
 1229 819 l 1,3,-1
 1147 819 l 1,4,-1
 819 0 l 1,5,-1
 615 0 l 1,6,-1
 287 819 l 1,7,-1
 205 819 l 1,8,-1
 205 1024 l 1,9,-1
 426 1024 l 1,10,-1
 717 298 l 1,0,-1
EndSplineSet
EndChar

StartChar: w
Encoding: 119 119 51
Width: 1231
Flags: W
LayerCount: 2
Fore
SplineSet
1231 1024 m 5,0,-1
 1157 0 l 5,1,-1
 819 0 l 5,2,-1
 717 307 l 5,3,-1
 615 0 l 5,4,-1
 277 0 l 5,5,-1
 205 1024 l 5,6,-1
 414 1024 l 5,7,-1
 470 205 l 5,8,-1
 615 614 l 5,9,-1
 819 614 l 5,10,-1
 968 205 l 5,11,-1
 1024 1024 l 5,12,-1
 1231 1024 l 5,0,-1
EndSplineSet
EndChar

StartChar: x
Encoding: 120 120 52
Width: 1229
Flags: W
LayerCount: 2
Fore
SplineSet
1229 0 m 1,0,-1
 975 0 l 1,1,-1
 717 354 l 1,2,-1
 459 0 l 1,3,-1
 205 0 l 1,4,-1
 205 205 l 1,5,-1
 355 205 l 1,6,-1
 579 512 l 1,7,-1
 355 819 l 1,8,-1
 205 819 l 1,9,-1
 205 1024 l 1,10,-1
 459 1024 l 1,11,-1
 717 669 l 1,12,-1
 975 1024 l 1,13,-1
 1229 1024 l 1,14,-1
 1229 819 l 1,15,-1
 1079 819 l 1,16,-1
 855 512 l 1,17,-1
 1079 205 l 1,18,-1
 1229 205 l 1,19,-1
 1229 0 l 1,0,-1
EndSplineSet
EndChar

StartChar: y
Encoding: 121 121 53
Width: 1229
Flags: W
LayerCount: 2
Fore
SplineSet
615 466 m 1,0,-1
 580 514 l 1,1,-1
 507 613 l 1,2,-1
 355 819 l 1,3,-1
 205 819 l 1,4,-1
 205 1024 l 1,5,-1
 459 1024 l 1,6,-1
 717 669 l 1,7,-1
 975 1024 l 1,8,-1
 1229 1024 l 1,9,-1
 1229 819 l 1,10,-1
 1079 819 l 1,11,-1
 856 514 l 1,12,-1
 819 464 l 1,13,-1
 819 0 l 1,14,-1
 615 0 l 1,15,-1
 615 466 l 1,0,-1
EndSplineSet
EndChar

StartChar: z
Encoding: 122 122 54
Width: 1229
Flags: W
LayerCount: 2
Fore
SplineSet
918 205 m 1024,0,-1
410 205 m 1024,1,-1
516 819 m 1024,2,-1
410 205 m 1024,3,-1
205 1024 m 1,4,-1
 1229 1024 l 1,5,-1
 1229 614 l 1,6,-1
 1024 614 l 1,7,-1
 1024 819 l 1,8,-1
 518 819 l 1,9,-1
 1229 205 l 1,10,-1
 1229 0 l 1,11,-1
 205 0 l 1,12,-1
 205 410 l 1,13,-1
 410 410 l 1,14,-1
 410 205 l 1,15,-1
 916 205 l 1,16,-1
 205 819 l 1,17,-1
 205 1024 l 1,4,-1
EndSplineSet
EndChar

StartChar: zero
Encoding: 48 48 55
Width: 1229
Flags: W
LayerCount: 2
Fore
SplineSet
999 634 m 1050,0,-1
757 719 m 1,1,-1
 828 799 l 1,2,3
 781 819 781 819 717 819 c 128,-1,4
 653 819 653 819 599 796 c 0,5,6
 543 772 543 772 500 729 c 0,7,8
 454 683 454 683 433 630 c 0,9,10
 410 572 410 572 410 512 c 0,11,12
 410 448 410 448 433 394 c 0,13,14
 441 376 441 376 448 363 c 1,15,-1
 527 454 l 1,16,-1
 757 719 l 1,1,-1
693 327 m 1,17,-1
 605 226 l 1,18,19
 660 205 660 205 717 205 c 0,20,21
 781 205 781 205 835 228 c 0,22,23
 891 252 891 252 934 295 c 0,24,25
 980 341 980 341 1001 394 c 0,26,27
 1024 452 1024 452 1024 512 c 0,28,29
 1024 584 1024 584 1001 630 c 0,30,31
 997 638 997 638 984 663 c 1,32,-1
 926 597 l 1,33,-1
 693 327 l 1,17,-1
717 1024 m 128,-1,35
 819 1024 819 1024 913 985 c 128,-1,36
 1007 946 1007 946 1078 873 c 0,37,38
 1151 802 1151 802 1190 708 c 128,-1,39
 1229 614 1229 614 1229 512 c 128,-1,40
 1229 410 1229 410 1190 316 c 128,-1,41
 1151 222 1151 222 1078 151 c 0,42,43
 1007 78 1007 78 913 39 c 128,-1,44
 819 0 819 0 717 0 c 128,-1,45
 615 0 615 0 521 39 c 128,-1,46
 427 78 427 78 356 151 c 0,47,48
 283 222 283 222 244 316 c 128,-1,49
 205 410 205 410 205 512 c 128,-1,50
 205 614 205 614 244 708 c 128,-1,51
 283 802 283 802 356 873 c 0,52,53
 427 946 427 946 521 985 c 128,-1,34
 615 1024 615 1024 717 1024 c 128,-1,35
EndSplineSet
EndChar

StartChar: one
Encoding: 49 49 56
Width: 1228
Flags: W
LayerCount: 2
Fore
SplineSet
205 0 m 1,0,-1
 205 205 l 1,1,-1
 615 205 l 1,2,-1
 615 819 l 1,3,-1
 532 819 l 1,4,-1
 451 737 l 1,5,-1
 327 614 l 1,6,-1
 205 612 l 1,7,-1
 205 693 l 1,8,-1
 205 778 l 1,9,-1
 451 1024 l 1,10,-1
 819 1024 l 1,11,-1
 819 205 l 1,12,-1
 1228 205 l 1,13,-1
 1228 0 l 1,14,-1
 205 0 l 1,0,-1
EndSplineSet
EndChar

StartChar: two
Encoding: 50 50 57
Width: 1231
Flags: W
LayerCount: 2
Fore
SplineSet
205 0 m 2,0,1
 205 205 l 257,2,-1
 963 623 l 2,3,4
 978 631 978 631 995 645 c 0,5,6
 1011 659 1011 659 1018 678 c 0,7,8
 1026 699 1026 699 1026 717 c 128,-1,9
 1026 735 1026 735 1018 756 c 0,10,11
 1011 774 1011 774 996 789 c 128,-1,12
 981 804 981 804 963 811 c 0,13,14
 942 819 942 819 924 819 c 2,15,-1
 514 819 l 2,16,17
 490 819 490 819 473.5 810.5 c 128,-1,18
 457 802 457 802 442.5 788 c 128,-1,19
 428 774 428 774 420 756 c 0,20,21
 412 735 412 735 412 717 c 2,22,-1
 412 614 l 1,23,-1
 207 614 l 1,24,-1
 207 717 l 2,25,26
 207 776 207 776 231 835 c 0,27,28
 253 890 253 890 297 934 c 256,29,30
 341 978 341 978 396 1000 c 0,31,32
 453 1024 453 1024 514 1024 c 2,33,-1
 924 1024 l 2,34,35
 982 1024 982 1024 1042 1000 c 0,36,37
 1097 978 1097 978 1141 934 c 256,38,39
 1185 890 1185 890 1207 835 c 0,40,41
 1231 778 1231 778 1231 717 c 0,42,43
 1231 659 1231 659 1207 599 c 0,44,45
 1185 544 1185 544 1141 500 c 0,46,47
 1113 472 1113 472 1042 433 c 2,48,-1
 627 205 l 1,49,-1
 1228 205 l 1,50,-1
 1228 0 l 1,51,-1
 205 0 l 2,0,1
EndSplineSet
EndChar

StartChar: three
Encoding: 51 51 58
Width: 1229
Flags: W
LayerCount: 2
Fore
SplineSet
882 410 m 1,0,-1
 410 410 l 1,1,-1
 410 614 l 1,2,-1
 872 614 l 1,3,-1
 921 614 l 2,4,5
 942 614 942 614 960 622 c 0,6,7
 982 632 982 632 994 644 c 0,8,9
 1007 657 1007 657 1016 677 c 0,10,11
 1024 695 1024 695 1024 716 c 0,12,13
 1024 736 1024 736 1016 755 c 0,14,15
 1007 775 1007 775 994 788 c 0,16,17
 979 803 979 803 960 810 c 0,18,19
 936 819 936 819 921 819 c 2,20,-1
 882 819 l 1,21,-1
 205 819 l 1,22,-1
 205 1024 l 1,23,-1
 615 1024 l 1,24,-1
 876 1024 l 2,25,26
 983 1024 983 1024 1039 1000 c 0,27,28
 1100 974 1100 974 1138 934 c 0,29,30
 1185 885 1185 885 1205 835 c 0,31,32
 1229 775 1229 775 1229 717 c 0,33,34
 1229 664 1229 664 1205 599 c 0,35,36
 1188 553 1188 553 1151 513 c 1,37,-1
 1151 512 l 1,38,39
 1189 468 1189 468 1205 425 c 0,40,41
 1229 360 1229 360 1229 307 c 0,42,43
 1229 248 1229 248 1205 189 c 0,44,45
 1185 139 1185 139 1138 90 c 0,46,47
 1096 46 1096 46 1039 24 c 0,48,49
 977 0 977 0 872 0 c 2,50,-1
 205 0 l 1,51,-1
 205 205 l 1,52,-1
 872 205 l 1,53,-1
 921 205 l 2,54,55
 942 205 942 205 960 213 c 0,56,57
 982 223 982 223 994 235 c 0,58,59
 1007 248 1007 248 1016 268 c 0,60,61
 1024 286 1024 286 1024 307 c 0,62,63
 1024 327 1024 327 1016 346 c 0,64,65
 1007 366 1007 366 994 379 c 0,66,67
 979 394 979 394 960 401 c 0,68,69
 936 410 936 410 921 410 c 2,70,-1
 882 410 l 1,0,-1
EndSplineSet
EndChar

StartChar: four
Encoding: 52 52 59
Width: 1229
Flags: W
LayerCount: 2
Fore
SplineSet
615 410 m 1,0,-1
 205 410 l 1,1,-1
 205 614 l 1,2,-1
 615 1024 l 1,3,-1
 1024 1024 l 1,4,-1
 1024 819 l 1,5,-1
 1024 614 l 1,6,-1
 1228 614 l 1,7,-1
 1228 410 l 1,8,-1
 1024 410 l 5,9,-1
 1024 205 l 1,10,-1
 1229 205 l 1,11,-1
 1229 0 l 1,12,-1
 615 0 l 1,13,-1
 615 205 l 1,14,-1
 819 205 l 1,15,-1
 819 410 l 1,16,-1
 615 410 l 1,0,-1
615 614 m 1,17,-1
 819 614 l 1,18,-1
 819 819 l 1,19,-1
 702 819 l 1,20,-1
 495 614 l 1,21,-1
 615 614 l 1,17,-1
EndSplineSet
EndChar

StartChar: five
Encoding: 53 53 60
Width: 1231
Flags: W
LayerCount: 2
Fore
SplineSet
924 0 m 1,0,1
 205 0 l 1,2,-1
 205 205 l 1,3,-1
 922 205 l 1,4,-1
 924 205 l 2,5,6
 942 205 942 205 963 213 c 0,7,8
 979 219 979 219 996 236 c 0,9,10
 1009 249 1009 249 1018 268 c 0,11,12
 1026 285 1026 285 1026 307 c 0,13,14
 1026 325 1026 325 1018 346 c 0,15,16
 1011 364 1011 364 996 379 c 0,17,18
 983 392 983 392 963 401 c 256,19,20
 943 410 943 410 924 410 c 2,21,-1
 205 410 l 1,22,-1
 205 1024 l 1,23,-1
 1228 1024 l 1,24,-1
 1228 820 l 1,25,-1
 410 819 l 1,26,-1
 410 614 l 1,27,-1
 924 614 l 2,28,29
 987 614 987 614 1042 591 c 0,30,31
 1094 569 1094 569 1141 524 c 0,32,33
 1182 485 1182 485 1207 425 c 0,34,35
 1231 368 1231 368 1231 307 c 0,36,37
 1231 249 1231 249 1207 189 c 0,38,39
 1185 134 1185 134 1141 90 c 256,40,41
 1097 46 1097 46 1042 24 c 0,42,43
 985 0 985 0 924 0 c 1,0,1
EndSplineSet
EndChar

StartChar: six
Encoding: 54 54 61
Width: 1231
Flags: W
LayerCount: 2
Fore
SplineSet
512 410 m 2,0,1
 495 410 495 410 473 401 c 256,2,3
 453 393 453 393 440 379 c 0,4,5
 425 364 425 364 418 346 c 0,6,7
 410 329 410 329 410 307 c 128,-1,8
 410 285 410 285 418 268 c 0,9,10
 425 249 425 249 440 236 c 0,11,12
 454 220 454 220 473 213 c 0,13,14
 494 205 494 205 512 205 c 2,15,-1
 514 205 l 1,16,-1
 922 205 l 1,17,-1
 924 205 l 2,18,19
 942 205 942 205 963 213 c 0,20,21
 979 219 979 219 996 236 c 0,22,23
 1009 249 1009 249 1018 268 c 0,24,25
 1026 285 1026 285 1026 307 c 0,26,27
 1026 325 1026 325 1018 346 c 0,28,29
 1011 364 1011 364 996 379 c 0,30,31
 983 392 983 392 963 401 c 256,32,33
 942 410 942 410 924 410 c 2,34,-1
 512 410 l 2,0,1
512 614 m 2,35,36
 513 614 l 1,37,-1
 924 614 l 2,38,39
 987 614 987 614 1042 591 c 0,40,41
 1094 569 1094 569 1141 524 c 0,42,43
 1182 485 1182 485 1207 425 c 0,44,45
 1231 368 1231 368 1231 307 c 0,46,47
 1231 249 1231 249 1207 189 c 0,48,49
 1185 134 1185 134 1141 90 c 256,50,51
 1097 46 1097 46 1042 24 c 0,52,53
 982 0 982 0 924 0 c 2,54,-1
 512 0 l 0,55,56
 454 0 454 0 394 24 c 0,57,58
 339 46 339 46 295 90 c 256,59,60
 251 134 251 134 229 189 c 0,61,62
 205 249 205 249 205 307 c 2,63,-1
 205 309 l 1,64,-1
 205 717 l 2,65,66
 205 775 205 775 229 835 c 0,67,68
 251 890 251 890 295 934 c 256,69,70
 339 978 339 978 394 1000 c 0,71,72
 454 1024 454 1024 512 1024 c 2,73,-1
 922 1024 l 1,74,75
 1026 1024 l 1,76,-1
 1026 819 l 1,77,-1
 922 819 l 1,78,-1
 512 819 l 2,79,80
 494 819 494 819 473 811 c 0,81,82
 455 804 455 804 440 789 c 128,-1,83
 425 774 425 774 418 756 c 0,84,85
 410 735 410 735 410 717 c 0,86,-1
 410 596 l 1,87,88
 456 614 456 614 512 614 c 2,35,36
EndSplineSet
EndChar

StartChar: seven
Encoding: 55 55 62
Width: 1229
VWidth: 0
Flags: W
LayerCount: 2
Fore
SplineSet
205 1024 m 25,0,-1
 1229 1024 l 1,1,-1
 1229 819 l 1,2,-1
 1076 614 l 1,3,-1
 1229 614 l 1,4,-1
 1229 410 l 1,5,-1
 922 410 l 1,6,-1
 615 0 l 1,7,-1
 360 0 l 1,8,-1
 669 410 l 1,9,-1
 410 410 l 1,10,-1
 410 614 l 1,11,-1
 823 614 l 1,12,-1
 978 819 l 1,13,-1
 205 819 l 1,14,-1
 205 1024 l 25,0,-1
EndSplineSet
EndChar

StartChar: eight
Encoding: 56 56 63
Width: 1229
Flags: W
LayerCount: 2
Fore
SplineSet
562 0 m 2,0,1
 457 0 457 0 395 24 c 0,2,3
 338 46 338 46 296 90 c 0,4,5
 249 139 249 139 229 189 c 0,6,7
 205 248 205 248 205 307 c 0,8,9
 205 360 205 360 229 425 c 0,10,11
 245 468 245 468 283 512 c 1,12,-1
 283 513 l 1,13,14
 246 553 246 553 229 599 c 0,15,16
 205 664 205 664 205 717 c 0,17,18
 205 778 205 778 229 835 c 0,19,20
 249 885 249 885 296 934 c 0,21,22
 336 976 336 976 395 1000 c 128,-1,23
 454 1024 454 1024 558 1024 c 2,24,-1
 876 1024 l 2,25,26
 980 1024 980 1024 1039 1000 c 128,-1,27
 1098 976 1098 976 1138 934 c 0,28,29
 1185 885 1185 885 1205 835 c 0,30,31
 1229 778 1229 778 1229 717 c 0,32,33
 1229 664 1229 664 1205 599 c 0,34,35
 1188 553 1188 553 1151 513 c 1,36,-1
 1151 512 l 1,37,38
 1189 468 1189 468 1205 425 c 0,39,40
 1229 360 1229 360 1229 307 c 0,41,42
 1229 248 1229 248 1205 189 c 0,43,44
 1185 139 1185 139 1138 90 c 0,45,46
 1096 46 1096 46 1039 24 c 0,47,48
 977 0 977 0 872 0 c 2,49,-1
 562 0 l 2,0,1
872 614 m 1,50,-1
 921 614 l 2,51,52
 942 614 942 614 960 622 c 0,53,54
 982 632 982 632 994 644 c 0,55,56
 1009 661 1009 661 1016 677 c 0,57,58
 1024 698 1024 698 1024 716 c 0,59,60
 1024 736 1024 736 1016 755 c 0,61,62
 1007 775 1007 775 994 788 c 0,63,64
 979 803 979 803 960 810 c 0,65,66
 936 819 936 819 921 819 c 2,67,-1
 882 819 l 1,68,-1
 552 819 l 1,69,-1
 513 819 l 2,70,71
 498 819 498 819 474 810 c 0,72,73
 455 803 455 803 440 788 c 0,74,75
 427 775 427 775 418 755 c 0,76,77
 410 736 410 736 410 716 c 0,78,79
 410 698 410 698 418 677 c 0,80,81
 425 661 425 661 440 644 c 0,82,83
 452 632 452 632 474 622 c 0,84,85
 492 614 492 614 513 614 c 2,86,-1
 562 614 l 1,87,-1
 872 614 l 1,50,-1
872 205 m 1,88,-1
 921 205 l 2,89,90
 942 205 942 205 960 213 c 0,91,92
 982 223 982 223 994 235 c 0,93,94
 1009 252 1009 252 1016 268 c 0,95,96
 1024 289 1024 289 1024 307 c 0,97,98
 1024 327 1024 327 1016 346 c 0,99,100
 1007 366 1007 366 994 379 c 0,101,102
 979 394 979 394 960 401 c 0,103,104
 936 410 936 410 921 410 c 2,105,-1
 882 410 l 1,106,-1
 552 410 l 1,107,-1
 513 410 l 2,108,109
 498 410 498 410 474 401 c 0,110,111
 455 394 455 394 440 379 c 0,112,113
 427 366 427 366 418 346 c 0,114,115
 410 327 410 327 410 307 c 0,116,117
 410 289 410 289 418 268 c 0,118,119
 425 252 425 252 440 235 c 0,120,121
 452 223 452 223 474 213 c 0,122,123
 492 205 492 205 513 205 c 2,124,-1
 562 205 l 1,125,-1
 872 205 l 1,88,-1
EndSplineSet
EndChar

StartChar: nine
Encoding: 57 57 64
Width: 1231
Flags: W
LayerCount: 2
Fore
SplineSet
924 614 m 2,0,1
 941 614 941 614 963 623 c 256,2,3
 983 631 983 631 996 645 c 0,4,5
 1011 660 1011 660 1018 678 c 0,6,7
 1026 695 1026 695 1026 717 c 128,-1,8
 1026 739 1026 739 1018 756 c 0,9,10
 1011 775 1011 775 996 788 c 0,11,12
 982 804 982 804 963 811 c 0,13,14
 942 819 942 819 924 819 c 2,15,-1
 922 819 l 1,16,-1
 514 819 l 1,17,-1
 512 819 l 2,18,19
 494 819 494 819 473 811 c 0,20,21
 457 805 457 805 440 788 c 0,22,23
 427 775 427 775 418 756 c 0,24,25
 410 739 410 739 410 717 c 0,26,27
 410 699 410 699 418 678 c 0,28,29
 425 660 425 660 440 645 c 0,30,31
 453 632 453 632 473 623 c 256,32,33
 494 614 494 614 512 614 c 2,34,-1
 924 614 l 2,0,1
924 410 m 2,35,36
 923 410 l 1,37,-1
 512 410 l 2,38,39
 449 410 449 410 394 433 c 0,40,41
 342 455 342 455 295 500 c 0,42,43
 254 539 254 539 229 599 c 0,44,45
 205 656 205 656 205 717 c 0,46,47
 205 775 205 775 229 835 c 0,48,49
 251 890 251 890 295 934 c 256,50,51
 339 978 339 978 394 1000 c 0,52,53
 454 1024 454 1024 512 1024 c 2,54,-1
 924 1024 l 0,55,56
 982 1024 982 1024 1042 1000 c 0,57,58
 1097 978 1097 978 1141 934 c 256,59,60
 1185 890 1185 890 1207 835 c 0,61,62
 1231 775 1231 775 1231 717 c 2,63,-1
 1231 715 l 1,64,-1
 1231 307 l 2,65,66
 1231 249 1231 249 1207 189 c 0,67,68
 1185 134 1185 134 1141 90 c 256,69,70
 1097 46 1097 46 1042 24 c 0,71,72
 982 0 982 0 924 0 c 2,73,-1
 514 0 l 1,74,75
 410 0 l 1,76,-1
 410 205 l 1,77,-1
 514 205 l 1,78,-1
 924 205 l 2,79,80
 942 205 942 205 963 213 c 0,81,82
 981 220 981 220 996 235 c 128,-1,83
 1011 250 1011 250 1018 268 c 0,84,85
 1026 289 1026 289 1026 307 c 0,86,-1
 1026 428 l 1,87,88
 980 410 980 410 924 410 c 2,35,36
EndSplineSet
EndChar

StartChar: plus
Encoding: 43 43 65
Width: 1229
VWidth: 0
Flags: W
LayerCount: 2
Fore
SplineSet
615 1024 m 29,0,-1
 819 1024 l 29,1,-1
 819 614 l 29,2,-1
 1229 614 l 29,3,-1
 1229 410 l 5,4,-1
 819 410 l 29,5,-1
 819 0 l 5,6,-1
 615 0 l 29,7,-1
 615 410 l 29,8,-1
 205 410 l 29,9,-1
 205 614 l 29,10,-1
 615 614 l 29,11,-1
 615 1024 l 29,0,-1
EndSplineSet
EndChar

StartChar: hyphen
Encoding: 45 45 66
Width: 1229
VWidth: 0
Flags: W
LayerCount: 2
Fore
SplineSet
819 614 m 25,0,-1
 1229 614 l 25,1,-1
 1229 410 l 1,2,-1
 819 410 l 25,3,-1
 615 410 l 25,4,-1
 205 410 l 25,5,-1
 205 614 l 25,6,-1
 615 614 l 25,7,-1
 819 614 l 25,0,-1
EndSplineSet
EndChar

StartChar: equal
Encoding: 61 61 67
Width: 1229
VWidth: 0
Flags: W
LayerCount: 2
Fore
SplineSet
205 410 m 25,0,-1
 1229 410 l 1,1,-1
 1229 205 l 25,2,-1
 205 205 l 1,3,-1
 205 410 l 25,0,-1
205 819 m 1,4,-1
 1229 819 l 25,5,-1
 1229 614 l 1,6,-1
 205 614 l 25,7,-1
 205 819 l 1,4,-1
EndSplineSet
EndChar
